<svg xmlns="http://www.w3.org/2000/svg" xmlns:xlink="http://www.w3.org/1999/xlink" xmlns:s="https://github.com/nturley/netlistsvg" width="1839" height="681.5">
  <style>svg {
    stroke:#000;
    fill:none;
  }
  text {
    fill:#000;
    stroke:none;
    font-size:10px;
    font-weight: bold;
    font-family: "Courier New", monospace;
  }
  .nodelabel {
    text-anchor: middle;
  }
  .inputPortLabel {
    text-anchor: end;
  }
  .splitjoinBody {
    fill:#000;
  }</style>
  <g s:type="generic" transform="translate(838,198)" s:width="30" s:height="40" id="cell_$abc$169$auto$blifparse.cc:386:parse_blif$170">
    <text x="15" y="-4" class="nodelabel cell_$abc$169$auto$blifparse.cc:386:parse_blif$170" s:attribute="ref">sky130_fd_sc_hd__xnor2_1</text>
    <rect width="30" height="40" s:generic="body" class="cell_$abc$169$auto$blifparse.cc:386:parse_blif$170"/>
    <g transform="translate(0,10)" s:x="0" s:y="10" s:pid="in0" id="port_$abc$169$auto$blifparse.cc:386:parse_blif$170~A">
      <text x="-3" y="-4" class="inputPortLabel cell_$abc$169$auto$blifparse.cc:386:parse_blif$170">A</text>
    </g>
    <g transform="translate(0,30)" s:x="0" s:y="10" s:pid="in0" id="port_$abc$169$auto$blifparse.cc:386:parse_blif$170~B">
      <text x="-3" y="-4" class="inputPortLabel cell_$abc$169$auto$blifparse.cc:386:parse_blif$170">B</text>
    </g>
    <g transform="translate(30,10)" s:x="30" s:y="10" s:pid="out0" id="port_$abc$169$auto$blifparse.cc:386:parse_blif$170~Y">
      <text x="5" y="-4" style="fill:#000; stroke:none" class="cell_$abc$169$auto$blifparse.cc:386:parse_blif$170">Y</text>
    </g>
  </g>
  <g s:type="generic" transform="translate(838,411.5)" s:width="30" s:height="40" id="cell_$abc$169$auto$blifparse.cc:386:parse_blif$171">
    <text x="15" y="-4" class="nodelabel cell_$abc$169$auto$blifparse.cc:386:parse_blif$171" s:attribute="ref">sky130_fd_sc_hd__xnor2_1</text>
    <rect width="30" height="40" s:generic="body" class="cell_$abc$169$auto$blifparse.cc:386:parse_blif$171"/>
    <g transform="translate(0,10)" s:x="0" s:y="10" s:pid="in0" id="port_$abc$169$auto$blifparse.cc:386:parse_blif$171~A">
      <text x="-3" y="-4" class="inputPortLabel cell_$abc$169$auto$blifparse.cc:386:parse_blif$171">A</text>
    </g>
    <g transform="translate(0,30)" s:x="0" s:y="10" s:pid="in0" id="port_$abc$169$auto$blifparse.cc:386:parse_blif$171~B">
      <text x="-3" y="-4" class="inputPortLabel cell_$abc$169$auto$blifparse.cc:386:parse_blif$171">B</text>
    </g>
    <g transform="translate(30,10)" s:x="30" s:y="10" s:pid="out0" id="port_$abc$169$auto$blifparse.cc:386:parse_blif$171~Y">
      <text x="5" y="-4" style="fill:#000; stroke:none" class="cell_$abc$169$auto$blifparse.cc:386:parse_blif$171">Y</text>
    </g>
  </g>
  <g s:type="generic" transform="translate(174,110)" s:width="30" s:height="40" id="cell_$abc$169$auto$blifparse.cc:386:parse_blif$172">
    <text x="15" y="-4" class="nodelabel cell_$abc$169$auto$blifparse.cc:386:parse_blif$172" s:attribute="ref">sky130_fd_sc_hd__maj3_1</text>
    <rect width="30" height="60" s:generic="body" class="cell_$abc$169$auto$blifparse.cc:386:parse_blif$172"/>
    <g transform="translate(0,10)" s:x="0" s:y="10" s:pid="in0" id="port_$abc$169$auto$blifparse.cc:386:parse_blif$172~A">
      <text x="-3" y="-4" class="inputPortLabel cell_$abc$169$auto$blifparse.cc:386:parse_blif$172">A</text>
    </g>
    <g transform="translate(0,30)" s:x="0" s:y="10" s:pid="in0" id="port_$abc$169$auto$blifparse.cc:386:parse_blif$172~B">
      <text x="-3" y="-4" class="inputPortLabel cell_$abc$169$auto$blifparse.cc:386:parse_blif$172">B</text>
    </g>
    <g transform="translate(0,50)" s:x="0" s:y="10" s:pid="in0" id="port_$abc$169$auto$blifparse.cc:386:parse_blif$172~C">
      <text x="-3" y="-4" class="inputPortLabel cell_$abc$169$auto$blifparse.cc:386:parse_blif$172">C</text>
    </g>
    <g transform="translate(30,10)" s:x="30" s:y="10" s:pid="out0" id="port_$abc$169$auto$blifparse.cc:386:parse_blif$172~X">
      <text x="5" y="-4" style="fill:#000; stroke:none" class="cell_$abc$169$auto$blifparse.cc:386:parse_blif$172">X</text>
    </g>
  </g>
  <g s:type="generic" transform="translate(838,499.5)" s:width="30" s:height="40" id="cell_$abc$169$auto$blifparse.cc:386:parse_blif$173">
    <text x="15" y="-4" class="nodelabel cell_$abc$169$auto$blifparse.cc:386:parse_blif$173" s:attribute="ref">sky130_fd_sc_hd__xnor2_1</text>
    <rect width="30" height="40" s:generic="body" class="cell_$abc$169$auto$blifparse.cc:386:parse_blif$173"/>
    <g transform="translate(0,10)" s:x="0" s:y="10" s:pid="in0" id="port_$abc$169$auto$blifparse.cc:386:parse_blif$173~A">
      <text x="-3" y="-4" class="inputPortLabel cell_$abc$169$auto$blifparse.cc:386:parse_blif$173">A</text>
    </g>
    <g transform="translate(0,30)" s:x="0" s:y="10" s:pid="in0" id="port_$abc$169$auto$blifparse.cc:386:parse_blif$173~B">
      <text x="-3" y="-4" class="inputPortLabel cell_$abc$169$auto$blifparse.cc:386:parse_blif$173">B</text>
    </g>
    <g transform="translate(30,10)" s:x="30" s:y="10" s:pid="out0" id="port_$abc$169$auto$blifparse.cc:386:parse_blif$173~Y">
      <text x="5" y="-4" style="fill:#000; stroke:none" class="cell_$abc$169$auto$blifparse.cc:386:parse_blif$173">Y</text>
    </g>
  </g>
  <g s:type="generic" transform="translate(491,272)" s:width="30" s:height="40" id="cell_$abc$169$auto$blifparse.cc:386:parse_blif$174">
    <text x="15" y="-4" class="nodelabel cell_$abc$169$auto$blifparse.cc:386:parse_blif$174" s:attribute="ref">sky130_fd_sc_hd__maj3_1</text>
    <rect width="30" height="60" s:generic="body" class="cell_$abc$169$auto$blifparse.cc:386:parse_blif$174"/>
    <g transform="translate(0,10)" s:x="0" s:y="10" s:pid="in0" id="port_$abc$169$auto$blifparse.cc:386:parse_blif$174~A">
      <text x="-3" y="-4" class="inputPortLabel cell_$abc$169$auto$blifparse.cc:386:parse_blif$174">A</text>
    </g>
    <g transform="translate(0,30)" s:x="0" s:y="10" s:pid="in0" id="port_$abc$169$auto$blifparse.cc:386:parse_blif$174~B">
      <text x="-3" y="-4" class="inputPortLabel cell_$abc$169$auto$blifparse.cc:386:parse_blif$174">B</text>
    </g>
    <g transform="translate(0,50)" s:x="0" s:y="10" s:pid="in0" id="port_$abc$169$auto$blifparse.cc:386:parse_blif$174~C">
      <text x="-3" y="-4" class="inputPortLabel cell_$abc$169$auto$blifparse.cc:386:parse_blif$174">C</text>
    </g>
    <g transform="translate(30,10)" s:x="30" s:y="10" s:pid="out0" id="port_$abc$169$auto$blifparse.cc:386:parse_blif$174~X">
      <text x="5" y="-4" style="fill:#000; stroke:none" class="cell_$abc$169$auto$blifparse.cc:386:parse_blif$174">X</text>
    </g>
  </g>
  <g s:type="generic" transform="translate(838,303.5)" s:width="30" s:height="40" id="cell_$abc$169$auto$blifparse.cc:386:parse_blif$175">
    <text x="15" y="-4" class="nodelabel cell_$abc$169$auto$blifparse.cc:386:parse_blif$175" s:attribute="ref">sky130_fd_sc_hd__maj3_1</text>
    <rect width="30" height="60" s:generic="body" class="cell_$abc$169$auto$blifparse.cc:386:parse_blif$175"/>
    <g transform="translate(0,10)" s:x="0" s:y="10" s:pid="in0" id="port_$abc$169$auto$blifparse.cc:386:parse_blif$175~A">
      <text x="-3" y="-4" class="inputPortLabel cell_$abc$169$auto$blifparse.cc:386:parse_blif$175">A</text>
    </g>
    <g transform="translate(0,30)" s:x="0" s:y="10" s:pid="in0" id="port_$abc$169$auto$blifparse.cc:386:parse_blif$175~B">
      <text x="-3" y="-4" class="inputPortLabel cell_$abc$169$auto$blifparse.cc:386:parse_blif$175">B</text>
    </g>
    <g transform="translate(0,50)" s:x="0" s:y="10" s:pid="in0" id="port_$abc$169$auto$blifparse.cc:386:parse_blif$175~C">
      <text x="-3" y="-4" class="inputPortLabel cell_$abc$169$auto$blifparse.cc:386:parse_blif$175">C</text>
    </g>
    <g transform="translate(30,10)" s:x="30" s:y="10" s:pid="out0" id="port_$abc$169$auto$blifparse.cc:386:parse_blif$175~X">
      <text x="5" y="-4" style="fill:#000; stroke:none" class="cell_$abc$169$auto$blifparse.cc:386:parse_blif$175">X</text>
    </g>
  </g>
  <g s:type="generic" transform="translate(838,587.5)" s:width="30" s:height="40" id="cell_$abc$169$auto$blifparse.cc:386:parse_blif$176">
    <text x="15" y="-4" class="nodelabel cell_$abc$169$auto$blifparse.cc:386:parse_blif$176" s:attribute="ref">sky130_fd_sc_hd__xnor2_1</text>
    <rect width="30" height="40" s:generic="body" class="cell_$abc$169$auto$blifparse.cc:386:parse_blif$176"/>
    <g transform="translate(0,10)" s:x="0" s:y="10" s:pid="in0" id="port_$abc$169$auto$blifparse.cc:386:parse_blif$176~A">
      <text x="-3" y="-4" class="inputPortLabel cell_$abc$169$auto$blifparse.cc:386:parse_blif$176">A</text>
    </g>
    <g transform="translate(0,30)" s:x="0" s:y="10" s:pid="in0" id="port_$abc$169$auto$blifparse.cc:386:parse_blif$176~B">
      <text x="-3" y="-4" class="inputPortLabel cell_$abc$169$auto$blifparse.cc:386:parse_blif$176">B</text>
    </g>
    <g transform="translate(30,10)" s:x="30" s:y="10" s:pid="out0" id="port_$abc$169$auto$blifparse.cc:386:parse_blif$176~Y">
      <text x="5" y="-4" style="fill:#000; stroke:none" class="cell_$abc$169$auto$blifparse.cc:386:parse_blif$176">Y</text>
    </g>
  </g>
  <g s:type="generic" transform="translate(1492,240.5)" s:width="30" s:height="40" id="cell_$abc$169$auto$blifparse.cc:386:parse_blif$177">
    <text x="15" y="-4" class="nodelabel cell_$abc$169$auto$blifparse.cc:386:parse_blif$177" s:attribute="ref">sky130_fd_sc_hd__maj3_1</text>
    <rect width="30" height="60" s:generic="body" class="cell_$abc$169$auto$blifparse.cc:386:parse_blif$177"/>
    <g transform="translate(0,10)" s:x="0" s:y="10" s:pid="in0" id="port_$abc$169$auto$blifparse.cc:386:parse_blif$177~A">
      <text x="-3" y="-4" class="inputPortLabel cell_$abc$169$auto$blifparse.cc:386:parse_blif$177">A</text>
    </g>
    <g transform="translate(0,30)" s:x="0" s:y="10" s:pid="in0" id="port_$abc$169$auto$blifparse.cc:386:parse_blif$177~B">
      <text x="-3" y="-4" class="inputPortLabel cell_$abc$169$auto$blifparse.cc:386:parse_blif$177">B</text>
    </g>
    <g transform="translate(0,50)" s:x="0" s:y="10" s:pid="in0" id="port_$abc$169$auto$blifparse.cc:386:parse_blif$177~C">
      <text x="-3" y="-4" class="inputPortLabel cell_$abc$169$auto$blifparse.cc:386:parse_blif$177">C</text>
    </g>
    <g transform="translate(30,10)" s:x="30" s:y="10" s:pid="out0" id="port_$abc$169$auto$blifparse.cc:386:parse_blif$177~X">
      <text x="5" y="-4" style="fill:#000; stroke:none" class="cell_$abc$169$auto$blifparse.cc:386:parse_blif$177">X</text>
    </g>
  </g>
  <g s:type="generic" transform="translate(1155,22)" s:width="30" s:height="40" id="cell_$abc$169$auto$blifparse.cc:386:parse_blif$178">
    <text x="15" y="-4" class="nodelabel cell_$abc$169$auto$blifparse.cc:386:parse_blif$178" s:attribute="ref">sky130_fd_sc_hd__xnor2_1</text>
    <rect width="30" height="40" s:generic="body" class="cell_$abc$169$auto$blifparse.cc:386:parse_blif$178"/>
    <g transform="translate(0,10)" s:x="0" s:y="10" s:pid="in0" id="port_$abc$169$auto$blifparse.cc:386:parse_blif$178~A">
      <text x="-3" y="-4" class="inputPortLabel cell_$abc$169$auto$blifparse.cc:386:parse_blif$178">A</text>
    </g>
    <g transform="translate(0,30)" s:x="0" s:y="10" s:pid="in0" id="port_$abc$169$auto$blifparse.cc:386:parse_blif$178~B">
      <text x="-3" y="-4" class="inputPortLabel cell_$abc$169$auto$blifparse.cc:386:parse_blif$178">B</text>
    </g>
    <g transform="translate(30,10)" s:x="30" s:y="10" s:pid="out0" id="port_$abc$169$auto$blifparse.cc:386:parse_blif$178~Y">
      <text x="5" y="-4" style="fill:#000; stroke:none" class="cell_$abc$169$auto$blifparse.cc:386:parse_blif$178">Y</text>
    </g>
  </g>
  <g s:type="generic" transform="translate(1155,110)" s:width="30" s:height="40" id="cell_$abc$169$auto$blifparse.cc:386:parse_blif$179">
    <text x="15" y="-4" class="nodelabel cell_$abc$169$auto$blifparse.cc:386:parse_blif$179" s:attribute="ref">sky130_fd_sc_hd__xnor2_1</text>
    <rect width="30" height="40" s:generic="body" class="cell_$abc$169$auto$blifparse.cc:386:parse_blif$179"/>
    <g transform="translate(0,10)" s:x="0" s:y="10" s:pid="in0" id="port_$abc$169$auto$blifparse.cc:386:parse_blif$179~A">
      <text x="-3" y="-4" class="inputPortLabel cell_$abc$169$auto$blifparse.cc:386:parse_blif$179">A</text>
    </g>
    <g transform="translate(0,30)" s:x="0" s:y="10" s:pid="in0" id="port_$abc$169$auto$blifparse.cc:386:parse_blif$179~B">
      <text x="-3" y="-4" class="inputPortLabel cell_$abc$169$auto$blifparse.cc:386:parse_blif$179">B</text>
    </g>
    <g transform="translate(30,10)" s:x="30" s:y="10" s:pid="out0" id="port_$abc$169$auto$blifparse.cc:386:parse_blif$179~Y">
      <text x="5" y="-4" style="fill:#000; stroke:none" class="cell_$abc$169$auto$blifparse.cc:386:parse_blif$179">Y</text>
    </g>
  </g>
  <g s:type="generic" transform="translate(1155,198)" s:width="30" s:height="40" id="cell_$abc$169$auto$blifparse.cc:386:parse_blif$180">
    <text x="15" y="-4" class="nodelabel cell_$abc$169$auto$blifparse.cc:386:parse_blif$180" s:attribute="ref">sky130_fd_sc_hd__xnor2_1</text>
    <rect width="30" height="40" s:generic="body" class="cell_$abc$169$auto$blifparse.cc:386:parse_blif$180"/>
    <g transform="translate(0,10)" s:x="0" s:y="10" s:pid="in0" id="port_$abc$169$auto$blifparse.cc:386:parse_blif$180~A">
      <text x="-3" y="-4" class="inputPortLabel cell_$abc$169$auto$blifparse.cc:386:parse_blif$180">A</text>
    </g>
    <g transform="translate(0,30)" s:x="0" s:y="10" s:pid="in0" id="port_$abc$169$auto$blifparse.cc:386:parse_blif$180~B">
      <text x="-3" y="-4" class="inputPortLabel cell_$abc$169$auto$blifparse.cc:386:parse_blif$180">B</text>
    </g>
    <g transform="translate(30,10)" s:x="30" s:y="10" s:pid="out0" id="port_$abc$169$auto$blifparse.cc:386:parse_blif$180~Y">
      <text x="5" y="-4" style="fill:#000; stroke:none" class="cell_$abc$169$auto$blifparse.cc:386:parse_blif$180">Y</text>
    </g>
  </g>
  <g s:type="generic" transform="translate(1155,567.5)" s:width="30" s:height="40" id="cell_$abc$169$auto$blifparse.cc:386:parse_blif$181">
    <text x="15" y="-4" class="nodelabel cell_$abc$169$auto$blifparse.cc:386:parse_blif$181" s:attribute="ref">sky130_fd_sc_hd__xnor2_1</text>
    <rect width="30" height="40" s:generic="body" class="cell_$abc$169$auto$blifparse.cc:386:parse_blif$181"/>
    <g transform="translate(0,10)" s:x="0" s:y="10" s:pid="in0" id="port_$abc$169$auto$blifparse.cc:386:parse_blif$181~A">
      <text x="-3" y="-4" class="inputPortLabel cell_$abc$169$auto$blifparse.cc:386:parse_blif$181">A</text>
    </g>
    <g transform="translate(0,30)" s:x="0" s:y="10" s:pid="in0" id="port_$abc$169$auto$blifparse.cc:386:parse_blif$181~B">
      <text x="-3" y="-4" class="inputPortLabel cell_$abc$169$auto$blifparse.cc:386:parse_blif$181">B</text>
    </g>
    <g transform="translate(30,10)" s:x="30" s:y="10" s:pid="out0" id="port_$abc$169$auto$blifparse.cc:386:parse_blif$181~Y">
      <text x="5" y="-4" style="fill:#000; stroke:none" class="cell_$abc$169$auto$blifparse.cc:386:parse_blif$181">Y</text>
    </g>
  </g>
  <g s:type="inputExt" transform="translate(12,600)" s:width="30" s:height="20" id="cell_a">
    <text x="15" y="-4" class="nodelabel cell_a" s:attribute="ref">a</text>
    <s:alias val="$_inputExt_"/>
    <path d="M0,0 L0,20 L15,20 L30,10 L15,0 Z" class="cell_a"/>
    <g s:x="28" s:y="10" s:pid="Y"/>
  </g>
  <g s:type="inputExt" transform="translate(12,100.5)" s:width="30" s:height="20" id="cell_b">
    <text x="15" y="-4" class="nodelabel cell_b" s:attribute="ref">b</text>
    <s:alias val="$_inputExt_"/>
    <path d="M0,0 L0,20 L15,20 L30,10 L15,0 Z" class="cell_b"/>
    <g s:x="28" s:y="10" s:pid="Y"/>
  </g>
  <g s:type="inputExt" transform="translate(77,22.5)" s:width="30" s:height="20" id="cell_cin">
    <text x="15" y="-4" class="nodelabel cell_cin" s:attribute="ref">cin</text>
    <s:alias val="$_inputExt_"/>
    <path d="M0,0 L0,20 L15,20 L30,10 L15,0 Z" class="cell_cin"/>
    <g s:x="28" s:y="10" s:pid="Y"/>
  </g>
  <g s:type="outputExt" transform="translate(1797,32.5)" s:width="30" s:height="20" id="cell_sum">
    <text x="15" y="-4" class="nodelabel cell_sum" s:attribute="ref">sum</text>
    <s:alias val="$_outputExt_"/>
    <path d="M30,0 L30,20 L15,20 L0,10 L15,0 Z" class="cell_sum"/>
    <g s:x="0" s:y="10" s:pid="A"/>
  </g>
  <g s:type="outputExt" transform="translate(1797,241)" s:width="30" s:height="20" id="cell_cout">
    <text x="15" y="-4" class="nodelabel cell_cout" s:attribute="ref">cout</text>
    <s:alias val="$_outputExt_"/>
    <path d="M30,0 L30,20 L15,20 L0,10 L15,0 Z" class="cell_cout"/>
    <g s:x="0" s:y="10" s:pid="A"/>
  </g>
  <g s:type="join" transform="translate(1556.75,22)" s:width="4" s:height="40" id="cell_$join$,11,12,13,14,">
    <rect width="5" height="80" class="splitjoinBody" s:generic="body"/>
    <s:alias val="$_join_"/>
    <g s:x="5" s:y="20" s:pid="out"/>
    <g transform="translate(0,10)" s:x="0" s:y="10" s:pid="in0">
      <text x="-3" y="-4" class="inputPortLabel">0</text>
    </g>
    <g transform="translate(0,30)" s:x="0" s:y="10" s:pid="in0">
      <text x="-3" y="-4" class="inputPortLabel">1</text>
    </g>
    <g transform="translate(0,50)" s:x="0" s:y="10" s:pid="in0">
      <text x="-3" y="-4" class="inputPortLabel">2</text>
    </g>
    <g transform="translate(0,70)" s:x="0" s:y="10" s:pid="in0">
      <text x="-3" y="-4" class="inputPortLabel">3</text>
    </g>
  </g>
  <g s:type="split" transform="translate(92.8,90)" s:width="5" s:height="40" id="cell_$split$,6,7,8,9,">
    <rect width="5" height="80" class="splitjoinBody" s:generic="body"/>
    <s:alias val="$_split_"/>
    <g s:x="0" s:y="20" s:pid="in"/>
    <g transform="translate(4,10)" s:x="4" s:y="10" s:pid="out0">
      <text x="5" y="-4">2</text>
    </g>
    <g transform="translate(4,30)" s:x="4" s:y="10" s:pid="out0">
      <text x="5" y="-4">0</text>
    </g>
    <g transform="translate(4,50)" s:x="4" s:y="10" s:pid="out0">
      <text x="5" y="-4">1</text>
    </g>
    <g transform="translate(4,70)" s:x="4" s:y="10" s:pid="out0">
      <text x="5" y="-4">3</text>
    </g>
  </g>
  <g s:type="split" transform="translate(92.8,589.5)" s:width="5" s:height="40" id="cell_$split$,2,3,4,5,">
    <rect width="5" height="80" class="splitjoinBody" s:generic="body"/>
    <s:alias val="$_split_"/>
    <g s:x="0" s:y="20" s:pid="in"/>
    <g transform="translate(4,10)" s:x="4" s:y="10" s:pid="out0">
      <text x="5" y="-4">2</text>
    </g>
    <g transform="translate(4,30)" s:x="4" s:y="10" s:pid="out0">
      <text x="5" y="-4">0</text>
    </g>
    <g transform="translate(4,50)" s:x="4" s:y="10" s:pid="out0">
      <text x="5" y="-4">1</text>
    </g>
    <g transform="translate(4,70)" s:x="4" s:y="10" s:pid="out0">
      <text x="5" y="-4">3</text>
    </g>
  </g>
  <line x1="97.8" x2="117" y1="100.5" y2="100.5" class="net_8"/>
  <line x1="117" x2="117" y1="100.5" y2="78" class="net_8"/>
  <line x1="117" x2="811" y1="78" y2="78" class="net_8"/>
  <line x1="811" x2="811" y1="78" y2="208.5" class="net_8"/>
  <circle cx="811" cy="208.5" r="2" style="fill:#000" class="net_8"/>
  <line x1="811" x2="838" y1="208.5" y2="208.5" class="net_8"/>
  <line x1="97.8" x2="117" y1="100.5" y2="100.5" class="net_8"/>
  <line x1="117" x2="117" y1="100.5" y2="78" class="net_8"/>
  <line x1="117" x2="811" y1="78" y2="78" class="net_8"/>
  <line x1="811" x2="811" y1="78" y2="314" class="net_8"/>
  <line x1="811" x2="838" y1="314" y2="314" class="net_8"/>
  <line x1="97.8" x2="157" y1="600" y2="600" class="net_4"/>
  <line x1="157" x2="157" y1="600" y2="609" class="net_4"/>
  <line x1="157" x2="791" y1="609" y2="609" class="net_4"/>
  <line x1="791" x2="791" y1="609" y2="228.5" class="net_4"/>
  <line x1="791" x2="838" y1="228.5" y2="228.5" class="net_4"/>
  <line x1="97.8" x2="157" y1="600" y2="600" class="net_4"/>
  <line x1="157" x2="157" y1="600" y2="609" class="net_4"/>
  <line x1="157" x2="791" y1="609" y2="609" class="net_4"/>
  <line x1="791" x2="791" y1="609" y2="334" class="net_4"/>
  <circle cx="791" cy="334" r="2" style="fill:#000" class="net_4"/>
  <line x1="791" x2="838" y1="334" y2="334" class="net_4"/>
  <line x1="97.8" x2="147" y1="120.5" y2="120.5" class="net_6"/>
  <line x1="147" x2="147" y1="120.5" y2="89" class="net_6"/>
  <line x1="147" x2="781" y1="89" y2="89" class="net_6"/>
  <line x1="781" x2="781" y1="89" y2="422" class="net_6"/>
  <circle cx="147" cy="120.5" r="2" style="fill:#000" class="net_6"/>
  <line x1="781" x2="838" y1="422" y2="422" class="net_6"/>
  <line x1="97.8" x2="174" y1="120.5" y2="120.5" class="net_6"/>
  <line x1="97.8" x2="801" y1="620" y2="620" class="net_2"/>
  <line x1="801" x2="801" y1="620" y2="442" class="net_2"/>
  <line x1="801" x2="838" y1="442" y2="442" class="net_2"/>
  <line x1="97.8" x2="147" y1="620" y2="620" class="net_2"/>
  <line x1="147" x2="147" y1="620" y2="140.5" class="net_2"/>
  <circle cx="147" cy="620" r="2" style="fill:#000" class="net_2"/>
  <line x1="147" x2="174" y1="140.5" y2="140.5" class="net_2"/>
  <line x1="105" x2="137" y1="32.5" y2="32.5" class="net_10"/>
  <line x1="137" x2="137" y1="32.5" y2="160.5" class="net_10"/>
  <circle cx="137" cy="32.5" r="2" style="fill:#000" class="net_10"/>
  <line x1="137" x2="174" y1="160.5" y2="160.5" class="net_10"/>
  <line x1="105" x2="1155" y1="32.5" y2="32.5" class="net_10"/>
  <line x1="97.8" x2="127" y1="140.5" y2="140.5" class="net_7"/>
  <line x1="127" x2="127" y1="140.5" y2="183" class="net_7"/>
  <line x1="127" x2="771" y1="183" y2="183" class="net_7"/>
  <line x1="771" x2="771" y1="183" y2="510" class="net_7"/>
  <line x1="771" x2="838" y1="510" y2="510" class="net_7"/>
  <line x1="97.8" x2="127" y1="140.5" y2="140.5" class="net_7"/>
  <line x1="127" x2="127" y1="140.5" y2="183" class="net_7"/>
  <line x1="127" x2="474" y1="183" y2="183" class="net_7"/>
  <line x1="474" x2="474" y1="183" y2="282.5" class="net_7"/>
  <circle cx="474" cy="183" r="2" style="fill:#000" class="net_7"/>
  <line x1="474" x2="491" y1="282.5" y2="282.5" class="net_7"/>
  <line x1="97.8" x2="117" y1="640" y2="640" class="net_3"/>
  <line x1="117" x2="117" y1="640" y2="631" class="net_3"/>
  <line x1="117" x2="811" y1="631" y2="631" class="net_3"/>
  <line x1="811" x2="811" y1="631" y2="530" class="net_3"/>
  <line x1="811" x2="838" y1="530" y2="530" class="net_3"/>
  <line x1="97.8" x2="117" y1="640" y2="640" class="net_3"/>
  <line x1="117" x2="117" y1="640" y2="631" class="net_3"/>
  <line x1="117" x2="474" y1="631" y2="631" class="net_3"/>
  <line x1="474" x2="474" y1="631" y2="302.5" class="net_3"/>
  <circle cx="474" cy="631" r="2" style="fill:#000" class="net_3"/>
  <line x1="474" x2="491" y1="302.5" y2="302.5" class="net_3"/>
  <line x1="205" x2="464" y1="120.5" y2="120.5" class="net_18"/>
  <line x1="464" x2="464" y1="120.5" y2="322.5" class="net_18"/>
  <circle cx="464" cy="120.5" r="2" style="fill:#000" class="net_18"/>
  <line x1="464" x2="491" y1="322.5" y2="322.5" class="net_18"/>
  <line x1="205" x2="1155" y1="120.5" y2="120.5" class="net_18"/>
  <line x1="522" x2="801" y1="282.5" y2="282.5" class="net_20"/>
  <line x1="801" x2="801" y1="282.5" y2="354" class="net_20"/>
  <circle cx="801" cy="282.5" r="2" style="fill:#000" class="net_20"/>
  <line x1="801" x2="838" y1="354" y2="354" class="net_20"/>
  <line x1="522" x2="1138" y1="282.5" y2="282.5" class="net_20"/>
  <line x1="1138" x2="1138" y1="282.5" y2="228.5" class="net_20"/>
  <line x1="1138" x2="1155" y1="228.5" y2="228.5" class="net_20"/>
  <line x1="97.8" x2="117" y1="160.5" y2="160.5" class="net_9"/>
  <line x1="117" x2="117" y1="160.5" y2="251" class="net_9"/>
  <line x1="117" x2="454" y1="251" y2="251" class="net_9"/>
  <line x1="454" x2="454" y1="251" y2="598" class="net_9"/>
  <circle cx="454" cy="251" r="2" style="fill:#000" class="net_9"/>
  <line x1="454" x2="838" y1="598" y2="598" class="net_9"/>
  <line x1="97.8" x2="117" y1="160.5" y2="160.5" class="net_9"/>
  <line x1="117" x2="117" y1="160.5" y2="251" class="net_9"/>
  <line x1="117" x2="1492" y1="251" y2="251" class="net_9"/>
  <line x1="97.8" x2="117" y1="660" y2="660" class="net_5"/>
  <line x1="117" x2="117" y1="660" y2="642" class="net_5"/>
  <line x1="117" x2="821" y1="642" y2="642" class="net_5"/>
  <line x1="821" x2="821" y1="642" y2="618" class="net_5"/>
  <circle cx="821" cy="642" r="2" style="fill:#000" class="net_5"/>
  <line x1="821" x2="838" y1="618" y2="618" class="net_5"/>
  <line x1="97.8" x2="117" y1="660" y2="660" class="net_5"/>
  <line x1="117" x2="117" y1="660" y2="642" class="net_5"/>
  <line x1="117" x2="1465" y1="642" y2="642" class="net_5"/>
  <line x1="1465" x2="1465" y1="642" y2="271" class="net_5"/>
  <line x1="1465" x2="1492" y1="271" y2="271" class="net_5"/>
  <line x1="869" x2="1475" y1="314" y2="314" class="net_21"/>
  <line x1="1475" x2="1475" y1="314" y2="291" class="net_21"/>
  <line x1="1475" x2="1492" y1="291" y2="291" class="net_21"/>
  <line x1="869" x2="1138" y1="314" y2="314" class="net_21"/>
  <line x1="1138" x2="1138" y1="314" y2="578" class="net_21"/>
  <circle cx="1138" cy="314" r="2" style="fill:#000" class="net_21"/>
  <line x1="1138" x2="1155" y1="578" y2="578" class="net_21"/>
  <line x1="869" x2="1118" y1="422" y2="422" class="net_17"/>
  <line x1="1118" x2="1118" y1="422" y2="52.5" class="net_17"/>
  <line x1="1118" x2="1155" y1="52.5" y2="52.5" class="net_17"/>
  <line x1="869" x2="1128" y1="510" y2="510" class="net_19"/>
  <line x1="1128" x2="1128" y1="510" y2="140.5" class="net_19"/>
  <line x1="1128" x2="1155" y1="140.5" y2="140.5" class="net_19"/>
  <line x1="869" x2="1155" y1="208.5" y2="208.5" class="net_16"/>
  <line x1="869" x2="1155" y1="598" y2="598" class="net_22"/>
  <line x1="1562.75" x2="1797" y1="42.5" y2="42.5" class="net_11,12,13,14"/>
  <line x1="1523" x2="1797" y1="251" y2="251" class="net_15"/>
  <line x1="1186" x2="1556.75" y1="32.5" y2="32.5" class="net_11"/>
  <line x1="1186" x2="1435" y1="120.5" y2="120.5" class="net_12"/>
  <line x1="1435" x2="1435" y1="120.5" y2="52.5" class="net_12"/>
  <line x1="1435" x2="1556.75" y1="52.5" y2="52.5" class="net_12"/>
  <line x1="1186" x2="1445" y1="208.5" y2="208.5" class="net_13"/>
  <line x1="1445" x2="1445" y1="208.5" y2="72.5" class="net_13"/>
  <line x1="1445" x2="1556.75" y1="72.5" y2="72.5" class="net_13"/>
  <line x1="1186" x2="1455" y1="578" y2="578" class="net_14"/>
  <line x1="1455" x2="1455" y1="578" y2="112" class="net_14"/>
  <line x1="1455" x2="1557.25" y1="112" y2="112" class="net_14"/>
  <line x1="1557.25" x2="1557.25" y1="112" y2="93" class="net_14"/>
  <line x1="40" x2="92.8" y1="110.5" y2="110.5" class="net_6,7,8,9"/>
  <line x1="40" x2="92.8" y1="610" y2="610" class="net_2,3,4,5"/>
</svg>
