<svg xmlns="http://www.w3.org/2000/svg" xmlns:xlink="http://www.w3.org/1999/xlink" xmlns:s="https://github.com/nturley/netlistsvg" width="1613" height="654.5">
  <style>svg {
    stroke:#000;
    fill:none;
  }
  text {
    fill:#000;
    stroke:none;
    font-size:10px;
    font-weight: bold;
    font-family: "Courier New", monospace;
  }
  .nodelabel {
    text-anchor: middle;
  }
  .inputPortLabel {
    text-anchor: end;
  }
  .splitjoinBody {
    fill:#000;
  }</style>
  <g s:type="reduce_nxor" transform="translate(632.6666666666666,595.5)" s:width="33" s:height="25" id="cell_$abc$123$auto$blifparse.cc:371:parse_blif$124">
    <s:alias val="$xnor"/>
    <s:alias val="$reduce_xnor"/>
    <s:alias val="$_XNOR_"/>
    <path d="M3,0 A30 25 0 0 1 3,25 A30 25 0 0 0 33,12.5 A30 25 0 0 0 3,0" class="cell_$abc$123$auto$blifparse.cc:371:parse_blif$124"/>
    <path d="M0,0 A30 25 0 0 1 0,25" class="cell_$abc$123$auto$blifparse.cc:371:parse_blif$124"/>
    <circle cx="35" cy="12.5" r="3" class="cell_$abc$123$auto$blifparse.cc:371:parse_blif$124"/>
    <g s:x="3" s:y="5" s:pid="A"/>
    <g s:x="3" s:y="20" s:pid="B"/>
    <g s:x="38" s:y="12.5" s:pid="Y"/>
  </g>
  <g s:type="and" transform="translate(633.6666666666666,535.5)" s:width="30" s:height="25" id="cell_$abc$123$auto$blifparse.cc:371:parse_blif$125">
    <s:alias val="$and"/>
    <s:alias val="$logic_and"/>
    <s:alias val="$_AND_"/>
    <path d="M0,0 L0,25 L15,25 A15 12.5 0 0 0 15,0 Z" class="cell_$abc$123$auto$blifparse.cc:371:parse_blif$125"/>
    <g s:x="0" s:y="5" s:pid="A"/>
    <g s:x="0" s:y="20" s:pid="B"/>
    <g s:x="30" s:y="12.5" s:pid="Y"/>
  </g>
  <g s:type="nand" transform="translate(960.6666666666666,543)" s:width="30" s:height="25" id="cell_$abc$123$auto$blifparse.cc:371:parse_blif$126">
    <s:alias val="$nand"/>
    <s:alias val="$logic_nand"/>
    <s:alias val="$_NAND_"/>
    <s:alias val="$_ANDNOT_"/>
    <path d="M0,0 L0,25 L15,25 A15 12.5 0 0 0 15,0 Z" class="cell_$abc$123$auto$blifparse.cc:371:parse_blif$126"/>
    <circle cx="34" cy="12.5" r="3" class="cell_$abc$123$auto$blifparse.cc:371:parse_blif$126"/>
    <g s:x="0" s:y="5" s:pid="A"/>
    <g s:x="0" s:y="20" s:pid="B"/>
    <g s:x="36" s:y="12.5" s:pid="Y"/>
  </g>
  <g s:type="generic" transform="translate(1195,505)" s:width="30" s:height="40" id="cell_$abc$123$auto$blifparse.cc:371:parse_blif$127">
    <text x="15" y="-4" class="nodelabel cell_$abc$123$auto$blifparse.cc:371:parse_blif$127" s:attribute="ref">$_AOI3_</text>
    <rect width="30" height="60" s:generic="body" class="cell_$abc$123$auto$blifparse.cc:371:parse_blif$127"/>
    <g transform="translate(0,10)" s:x="0" s:y="10" s:pid="in0" id="port_$abc$123$auto$blifparse.cc:371:parse_blif$127~A">
      <text x="-3" y="-4" class="inputPortLabel cell_$abc$123$auto$blifparse.cc:371:parse_blif$127">A</text>
    </g>
    <g transform="translate(0,30)" s:x="0" s:y="10" s:pid="in0" id="port_$abc$123$auto$blifparse.cc:371:parse_blif$127~B">
      <text x="-3" y="-4" class="inputPortLabel cell_$abc$123$auto$blifparse.cc:371:parse_blif$127">B</text>
    </g>
    <g transform="translate(0,50)" s:x="0" s:y="10" s:pid="in0" id="port_$abc$123$auto$blifparse.cc:371:parse_blif$127~C">
      <text x="-3" y="-4" class="inputPortLabel cell_$abc$123$auto$blifparse.cc:371:parse_blif$127">C</text>
    </g>
    <g transform="translate(30,10)" s:x="30" s:y="10" s:pid="out0" id="port_$abc$123$auto$blifparse.cc:371:parse_blif$127~Y">
      <text x="5" y="-4" style="fill:#000; stroke:none" class="cell_$abc$123$auto$blifparse.cc:371:parse_blif$127">Y</text>
    </g>
  </g>
  <g s:type="reduce_nxor" transform="translate(320.66666666666663,379.5)" s:width="33" s:height="25" id="cell_$abc$123$auto$blifparse.cc:371:parse_blif$128">
    <s:alias val="$xnor"/>
    <s:alias val="$reduce_xnor"/>
    <s:alias val="$_XNOR_"/>
    <path d="M3,0 A30 25 0 0 1 3,25 A30 25 0 0 0 33,12.5 A30 25 0 0 0 3,0" class="cell_$abc$123$auto$blifparse.cc:371:parse_blif$128"/>
    <path d="M0,0 A30 25 0 0 1 0,25" class="cell_$abc$123$auto$blifparse.cc:371:parse_blif$128"/>
    <circle cx="35" cy="12.5" r="3" class="cell_$abc$123$auto$blifparse.cc:371:parse_blif$128"/>
    <g s:x="3" s:y="5" s:pid="A"/>
    <g s:x="3" s:y="20" s:pid="B"/>
    <g s:x="38" s:y="12.5" s:pid="Y"/>
  </g>
  <g s:type="or" transform="translate(960.6666666666666,407)" s:width="30" s:height="25" id="cell_$abc$123$auto$blifparse.cc:371:parse_blif$129">
    <s:alias val="$or"/>
    <s:alias val="$logic_or"/>
    <s:alias val="$_OR_"/>
    <path d="M0,25 L0,25 L15,25 A15 12.5 0 0 0 15,0 L0,0" class="cell_$abc$123$auto$blifparse.cc:371:parse_blif$129"/>
    <path d="M0,0 A30 25 0 0 1 0,25" class="cell_$abc$123$auto$blifparse.cc:371:parse_blif$129"/>
    <g s:x="3" s:y="5" s:pid="A"/>
    <g s:x="3" s:y="20" s:pid="B"/>
    <g s:x="30" s:y="12.5" s:pid="Y"/>
  </g>
  <g s:type="nand" transform="translate(321.66666666666663,505.5)" s:width="30" s:height="25" id="cell_$abc$123$auto$blifparse.cc:371:parse_blif$130">
    <s:alias val="$nand"/>
    <s:alias val="$logic_nand"/>
    <s:alias val="$_NAND_"/>
    <s:alias val="$_ANDNOT_"/>
    <path d="M0,0 L0,25 L15,25 A15 12.5 0 0 0 15,0 Z" class="cell_$abc$123$auto$blifparse.cc:371:parse_blif$130"/>
    <circle cx="34" cy="12.5" r="3" class="cell_$abc$123$auto$blifparse.cc:371:parse_blif$130"/>
    <g s:x="0" s:y="5" s:pid="A"/>
    <g s:x="0" s:y="20" s:pid="B"/>
    <g s:x="36" s:y="12.5" s:pid="Y"/>
  </g>
  <g s:type="reduce_nxor" transform="translate(320.66666666666663,211)" s:width="33" s:height="25" id="cell_$abc$123$auto$blifparse.cc:371:parse_blif$131">
    <s:alias val="$xnor"/>
    <s:alias val="$reduce_xnor"/>
    <s:alias val="$_XNOR_"/>
    <path d="M3,0 A30 25 0 0 1 3,25 A30 25 0 0 0 33,12.5 A30 25 0 0 0 3,0" class="cell_$abc$123$auto$blifparse.cc:371:parse_blif$131"/>
    <path d="M0,0 A30 25 0 0 1 0,25" class="cell_$abc$123$auto$blifparse.cc:371:parse_blif$131"/>
    <circle cx="35" cy="12.5" r="3" class="cell_$abc$123$auto$blifparse.cc:371:parse_blif$131"/>
    <g s:x="3" s:y="5" s:pid="A"/>
    <g s:x="3" s:y="20" s:pid="B"/>
    <g s:x="38" s:y="12.5" s:pid="Y"/>
  </g>
  <g s:type="and" transform="translate(170,227)" s:width="30" s:height="25" id="cell_$abc$123$auto$blifparse.cc:371:parse_blif$132">
    <s:alias val="$and"/>
    <s:alias val="$logic_and"/>
    <s:alias val="$_AND_"/>
    <path d="M0,0 L0,25 L15,25 A15 12.5 0 0 0 15,0 Z" class="cell_$abc$123$auto$blifparse.cc:371:parse_blif$132"/>
    <g s:x="0" s:y="5" s:pid="A"/>
    <g s:x="0" s:y="20" s:pid="B"/>
    <g s:x="30" s:y="12.5" s:pid="Y"/>
  </g>
  <g s:type="reduce_xor" transform="translate(169,12)" s:width="33" s:height="25" id="cell_$abc$123$auto$blifparse.cc:371:parse_blif$133">
    <s:alias val="$xor"/>
    <s:alias val="$reduce_xor"/>
    <s:alias val="$_XOR_"/>
    <path d="M3,0 A30 25 0 0 1 3,25 A30 25 0 0 0 33,12.5 A30 25 0 0 0 3,0" class="cell_$abc$123$auto$blifparse.cc:371:parse_blif$133"/>
    <path d="M0,0 A30 25 0 0 1 0,25" class="cell_$abc$123$auto$blifparse.cc:371:parse_blif$133"/>
    <g s:x="3" s:y="5" s:pid="A"/>
    <g s:x="3" s:y="20" s:pid="B"/>
    <g s:x="33" s:y="12.5" s:pid="Y"/>
  </g>
  <g s:type="generic" transform="translate(244,113)" s:width="30" s:height="40" id="cell_$abc$123$auto$blifparse.cc:371:parse_blif$134">
    <text x="15" y="-4" class="nodelabel cell_$abc$123$auto$blifparse.cc:371:parse_blif$134" s:attribute="ref">$_AOI3_</text>
    <rect width="30" height="60" s:generic="body" class="cell_$abc$123$auto$blifparse.cc:371:parse_blif$134"/>
    <g transform="translate(0,10)" s:x="0" s:y="10" s:pid="in0" id="port_$abc$123$auto$blifparse.cc:371:parse_blif$134~A">
      <text x="-3" y="-4" class="inputPortLabel cell_$abc$123$auto$blifparse.cc:371:parse_blif$134">A</text>
    </g>
    <g transform="translate(0,30)" s:x="0" s:y="10" s:pid="in0" id="port_$abc$123$auto$blifparse.cc:371:parse_blif$134~B">
      <text x="-3" y="-4" class="inputPortLabel cell_$abc$123$auto$blifparse.cc:371:parse_blif$134">B</text>
    </g>
    <g transform="translate(0,50)" s:x="0" s:y="10" s:pid="in0" id="port_$abc$123$auto$blifparse.cc:371:parse_blif$134~C">
      <text x="-3" y="-4" class="inputPortLabel cell_$abc$123$auto$blifparse.cc:371:parse_blif$134">C</text>
    </g>
    <g transform="translate(30,10)" s:x="30" s:y="10" s:pid="out0" id="port_$abc$123$auto$blifparse.cc:371:parse_blif$134~Y">
      <text x="5" y="-4" style="fill:#000; stroke:none" class="cell_$abc$123$auto$blifparse.cc:371:parse_blif$134">Y</text>
    </g>
  </g>
  <g s:type="generic" transform="translate(556,284)" s:width="30" s:height="40" id="cell_$abc$123$auto$blifparse.cc:371:parse_blif$135">
    <text x="15" y="-4" class="nodelabel cell_$abc$123$auto$blifparse.cc:371:parse_blif$135" s:attribute="ref">$_OAI3_</text>
    <rect width="30" height="60" s:generic="body" class="cell_$abc$123$auto$blifparse.cc:371:parse_blif$135"/>
    <g transform="translate(0,10)" s:x="0" s:y="10" s:pid="in0" id="port_$abc$123$auto$blifparse.cc:371:parse_blif$135~A">
      <text x="-3" y="-4" class="inputPortLabel cell_$abc$123$auto$blifparse.cc:371:parse_blif$135">A</text>
    </g>
    <g transform="translate(0,30)" s:x="0" s:y="10" s:pid="in0" id="port_$abc$123$auto$blifparse.cc:371:parse_blif$135~B">
      <text x="-3" y="-4" class="inputPortLabel cell_$abc$123$auto$blifparse.cc:371:parse_blif$135">B</text>
    </g>
    <g transform="translate(0,50)" s:x="0" s:y="10" s:pid="in0" id="port_$abc$123$auto$blifparse.cc:371:parse_blif$135~C">
      <text x="-3" y="-4" class="inputPortLabel cell_$abc$123$auto$blifparse.cc:371:parse_blif$135">C</text>
    </g>
    <g transform="translate(30,10)" s:x="30" s:y="10" s:pid="out0" id="port_$abc$123$auto$blifparse.cc:371:parse_blif$135~Y">
      <text x="5" y="-4" style="fill:#000; stroke:none" class="cell_$abc$123$auto$blifparse.cc:371:parse_blif$135">Y</text>
    </g>
  </g>
  <g s:type="reduce_nor" transform="translate(1271.6666666666667,349.5)" s:width="33" s:height="25" id="cell_$abc$123$auto$blifparse.cc:371:parse_blif$136">
    <s:alias val="$nor"/>
    <s:alias val="$reduce_nor"/>
    <s:alias val="$_NOR_"/>
    <s:alias val="$_ORNOT_"/>
    <path d="M0,25 L0,25 L15,25 A15 12.5 0 0 0 15,0 L0,0" class="cell_$abc$123$auto$blifparse.cc:371:parse_blif$136"/>
    <path d="M0,0 A30 25 0 0 1 0,25" class="cell_$abc$123$auto$blifparse.cc:371:parse_blif$136"/>
    <circle cx="34" cy="12.5" r="3" class="cell_$abc$123$auto$blifparse.cc:371:parse_blif$136"/>
    <g s:x="3" s:y="5" s:pid="A"/>
    <g s:x="3" s:y="20" s:pid="B"/>
    <g s:x="36" s:y="12.5" s:pid="Y"/>
  </g>
  <g s:type="nand" transform="translate(1500,357)" s:width="30" s:height="25" id="cell_$abc$123$auto$blifparse.cc:371:parse_blif$137">
    <s:alias val="$nand"/>
    <s:alias val="$logic_nand"/>
    <s:alias val="$_NAND_"/>
    <s:alias val="$_ANDNOT_"/>
    <path d="M0,0 L0,25 L15,25 A15 12.5 0 0 0 15,0 Z" class="cell_$abc$123$auto$blifparse.cc:371:parse_blif$137"/>
    <circle cx="34" cy="12.5" r="3" class="cell_$abc$123$auto$blifparse.cc:371:parse_blif$137"/>
    <g s:x="0" s:y="5" s:pid="A"/>
    <g s:x="0" s:y="20" s:pid="B"/>
    <g s:x="36" s:y="12.5" s:pid="Y"/>
  </g>
  <g s:type="reduce_xor" transform="translate(1271.6666666666667,19.5)" s:width="33" s:height="25" id="cell_$abc$123$auto$blifparse.cc:371:parse_blif$138">
    <s:alias val="$xor"/>
    <s:alias val="$reduce_xor"/>
    <s:alias val="$_XOR_"/>
    <path d="M3,0 A30 25 0 0 1 3,25 A30 25 0 0 0 33,12.5 A30 25 0 0 0 3,0" class="cell_$abc$123$auto$blifparse.cc:371:parse_blif$138"/>
    <path d="M0,0 A30 25 0 0 1 0,25" class="cell_$abc$123$auto$blifparse.cc:371:parse_blif$138"/>
    <g s:x="3" s:y="5" s:pid="A"/>
    <g s:x="3" s:y="20" s:pid="B"/>
    <g s:x="33" s:y="12.5" s:pid="Y"/>
  </g>
  <g s:type="reduce_xor" transform="translate(1271.6666666666667,118.5)" s:width="33" s:height="25" id="cell_$abc$123$auto$blifparse.cc:371:parse_blif$139">
    <s:alias val="$xor"/>
    <s:alias val="$reduce_xor"/>
    <s:alias val="$_XOR_"/>
    <path d="M3,0 A30 25 0 0 1 3,25 A30 25 0 0 0 33,12.5 A30 25 0 0 0 3,0" class="cell_$abc$123$auto$blifparse.cc:371:parse_blif$139"/>
    <path d="M0,0 A30 25 0 0 1 0,25" class="cell_$abc$123$auto$blifparse.cc:371:parse_blif$139"/>
    <g s:x="3" s:y="5" s:pid="A"/>
    <g s:x="3" s:y="20" s:pid="B"/>
    <g s:x="33" s:y="12.5" s:pid="Y"/>
  </g>
  <g s:type="not" transform="translate(672.5,382)" s:width="30" s:height="20" id="cell_$abc$123$auto$blifparse.cc:371:parse_blif$140">
    <s:alias val="$_NOT_"/>
    <s:alias val="$not"/>
    <s:alias val="$logic_not"/>
    <path d="M0,0 L0,20 L20,10 Z" class="cell_$abc$123$auto$blifparse.cc:371:parse_blif$140"/>
    <circle cx="23" cy="10" r="3" class="cell_$abc$123$auto$blifparse.cc:371:parse_blif$140"/>
    <g s:x="0" s:y="10" s:pid="A"/>
    <g s:x="25" s:y="10" s:pid="Y"/>
  </g>
  <g s:type="reduce_xor" transform="translate(1271.6666666666667,229.5)" s:width="33" s:height="25" id="cell_$abc$123$auto$blifparse.cc:371:parse_blif$141">
    <s:alias val="$xor"/>
    <s:alias val="$reduce_xor"/>
    <s:alias val="$_XOR_"/>
    <path d="M3,0 A30 25 0 0 1 3,25 A30 25 0 0 0 33,12.5 A30 25 0 0 0 3,0" class="cell_$abc$123$auto$blifparse.cc:371:parse_blif$141"/>
    <path d="M0,0 A30 25 0 0 1 0,25" class="cell_$abc$123$auto$blifparse.cc:371:parse_blif$141"/>
    <g s:x="3" s:y="5" s:pid="A"/>
    <g s:x="3" s:y="20" s:pid="B"/>
    <g s:x="33" s:y="12.5" s:pid="Y"/>
  </g>
  <g s:type="generic" transform="translate(883,284)" s:width="30" s:height="40" id="cell_$abc$123$auto$blifparse.cc:371:parse_blif$142">
    <text x="15" y="-4" class="nodelabel cell_$abc$123$auto$blifparse.cc:371:parse_blif$142" s:attribute="ref">$_AOI3_</text>
    <rect width="30" height="60" s:generic="body" class="cell_$abc$123$auto$blifparse.cc:371:parse_blif$142"/>
    <g transform="translate(0,10)" s:x="0" s:y="10" s:pid="in0" id="port_$abc$123$auto$blifparse.cc:371:parse_blif$142~A">
      <text x="-3" y="-4" class="inputPortLabel cell_$abc$123$auto$blifparse.cc:371:parse_blif$142">A</text>
    </g>
    <g transform="translate(0,30)" s:x="0" s:y="10" s:pid="in0" id="port_$abc$123$auto$blifparse.cc:371:parse_blif$142~B">
      <text x="-3" y="-4" class="inputPortLabel cell_$abc$123$auto$blifparse.cc:371:parse_blif$142">B</text>
    </g>
    <g transform="translate(0,50)" s:x="0" s:y="10" s:pid="in0" id="port_$abc$123$auto$blifparse.cc:371:parse_blif$142~C">
      <text x="-3" y="-4" class="inputPortLabel cell_$abc$123$auto$blifparse.cc:371:parse_blif$142">C</text>
    </g>
    <g transform="translate(30,10)" s:x="30" s:y="10" s:pid="out0" id="port_$abc$123$auto$blifparse.cc:371:parse_blif$142~Y">
      <text x="5" y="-4" style="fill:#000; stroke:none" class="cell_$abc$123$auto$blifparse.cc:371:parse_blif$142">Y</text>
    </g>
  </g>
  <g s:type="reduce_xor" transform="translate(1271.6666666666667,289.5)" s:width="33" s:height="25" id="cell_$abc$123$auto$blifparse.cc:371:parse_blif$143">
    <s:alias val="$xor"/>
    <s:alias val="$reduce_xor"/>
    <s:alias val="$_XOR_"/>
    <path d="M3,0 A30 25 0 0 1 3,25 A30 25 0 0 0 33,12.5 A30 25 0 0 0 3,0" class="cell_$abc$123$auto$blifparse.cc:371:parse_blif$143"/>
    <path d="M0,0 A30 25 0 0 1 0,25" class="cell_$abc$123$auto$blifparse.cc:371:parse_blif$143"/>
    <g s:x="3" s:y="5" s:pid="A"/>
    <g s:x="3" s:y="20" s:pid="B"/>
    <g s:x="33" s:y="12.5" s:pid="Y"/>
  </g>
  <g s:type="inputExt" transform="translate(12,364.5)" s:width="30" s:height="20" id="cell_a">
    <text x="15" y="-4" class="nodelabel cell_a" s:attribute="ref">a</text>
    <s:alias val="$_inputExt_"/>
    <path d="M0,0 L0,20 L15,20 L30,10 L15,0 Z" class="cell_a"/>
    <g s:x="28" s:y="10" s:pid="Y"/>
  </g>
  <g s:type="inputExt" transform="translate(12,479.5)" s:width="30" s:height="20" id="cell_b">
    <text x="15" y="-4" class="nodelabel cell_b" s:attribute="ref">b</text>
    <s:alias val="$_inputExt_"/>
    <path d="M0,0 L0,20 L15,20 L30,10 L15,0 Z" class="cell_b"/>
    <g s:x="28" s:y="10" s:pid="Y"/>
  </g>
  <g s:type="inputExt" transform="translate(172,82)" s:width="30" s:height="20" id="cell_cin">
    <text x="15" y="-4" class="nodelabel cell_cin" s:attribute="ref">cin</text>
    <s:alias val="$_inputExt_"/>
    <path d="M0,0 L0,20 L15,20 L30,10 L15,0 Z" class="cell_cin"/>
    <g s:x="28" s:y="10" s:pid="Y"/>
  </g>
  <g s:type="outputExt" transform="translate(1571,32)" s:width="30" s:height="20" id="cell_sum">
    <text x="15" y="-4" class="nodelabel cell_sum" s:attribute="ref">sum</text>
    <s:alias val="$_outputExt_"/>
    <path d="M30,0 L30,20 L15,20 L0,10 L15,0 Z" class="cell_sum"/>
    <g s:x="0" s:y="10" s:pid="A"/>
  </g>
  <g s:type="outputExt" transform="translate(1571,359.5)" s:width="30" s:height="20" id="cell_cout">
    <text x="15" y="-4" class="nodelabel cell_cout" s:attribute="ref">cout</text>
    <s:alias val="$_outputExt_"/>
    <path d="M30,0 L30,20 L15,20 L0,10 L15,0 Z" class="cell_cout"/>
    <g s:x="0" s:y="10" s:pid="A"/>
  </g>
  <g s:type="join" transform="translate(1511.5,21.5)" s:width="4" s:height="40" id="cell_$join$,11,12,13,14,">
    <rect width="5" height="80" class="splitjoinBody" s:generic="body"/>
    <s:alias val="$_join_"/>
    <g s:x="5" s:y="20" s:pid="out"/>
    <g transform="translate(0,10)" s:x="0" s:y="10" s:pid="in0">
      <text x="-3" y="-4" class="inputPortLabel">0</text>
    </g>
    <g transform="translate(0,30)" s:x="0" s:y="10" s:pid="in0">
      <text x="-3" y="-4" class="inputPortLabel">1</text>
    </g>
    <g transform="translate(0,50)" s:x="0" s:y="10" s:pid="in0">
      <text x="-3" y="-4" class="inputPortLabel">2</text>
    </g>
    <g transform="translate(0,70)" s:x="0" s:y="10" s:pid="in0">
      <text x="-3" y="-4" class="inputPortLabel">3</text>
    </g>
  </g>
  <g s:type="split" transform="translate(77,354)" s:width="5" s:height="40" id="cell_$split$,2,3,4,5,">
    <rect width="5" height="80" class="splitjoinBody" s:generic="body"/>
    <s:alias val="$_split_"/>
    <g s:x="0" s:y="20" s:pid="in"/>
    <g transform="translate(4,10)" s:x="4" s:y="10" s:pid="out0">
      <text x="5" y="-4">3</text>
    </g>
    <g transform="translate(4,30)" s:x="4" s:y="10" s:pid="out0">
      <text x="5" y="-4">2</text>
    </g>
    <g transform="translate(4,50)" s:x="4" s:y="10" s:pid="out0">
      <text x="5" y="-4">1</text>
    </g>
    <g transform="translate(4,70)" s:x="4" s:y="10" s:pid="out0">
      <text x="5" y="-4">0</text>
    </g>
  </g>
  <g s:type="split" transform="translate(77,469)" s:width="5" s:height="40" id="cell_$split$,6,7,8,9,">
    <rect width="5" height="80" class="splitjoinBody" s:generic="body"/>
    <s:alias val="$_split_"/>
    <g s:x="0" s:y="20" s:pid="in"/>
    <g transform="translate(4,10)" s:x="4" s:y="10" s:pid="out0">
      <text x="5" y="-4">3</text>
    </g>
    <g transform="translate(4,30)" s:x="4" s:y="10" s:pid="out0">
      <text x="5" y="-4">2</text>
    </g>
    <g transform="translate(4,50)" s:x="4" s:y="10" s:pid="out0">
      <text x="5" y="-4">1</text>
    </g>
    <g transform="translate(4,70)" s:x="4" s:y="10" s:pid="out0">
      <text x="5" y="-4">0</text>
    </g>
  </g>
  <line x1="82" x2="119" y1="364.5" y2="364.5" class="net_5"/>
  <line x1="119" x2="119" y1="364.5" y2="600.5" class="net_5"/>
  <circle cx="119" cy="600.5" r="2" style="fill:#000" class="net_5"/>
  <line x1="119" x2="635.6666666666666" y1="600.5" y2="600.5" class="net_5"/>
  <line x1="82" x2="119" y1="364.5" y2="364.5" class="net_5"/>
  <line x1="119" x2="119" y1="364.5" y2="630.5" class="net_5"/>
  <line x1="119" x2="1163" y1="630.5" y2="630.5" class="net_5"/>
  <line x1="1163" x2="1163" y1="630.5" y2="515.5" class="net_5"/>
  <line x1="1163" x2="1195" y1="515.5" y2="515.5" class="net_5"/>
  <line x1="82" x2="99" y1="479.5" y2="479.5" class="net_9"/>
  <line x1="99" x2="99" y1="479.5" y2="615.5" class="net_9"/>
  <circle cx="99" cy="615.5" r="2" style="fill:#000" class="net_9"/>
  <line x1="99" x2="635.6666666666666" y1="615.5" y2="615.5" class="net_9"/>
  <line x1="82" x2="99" y1="479.5" y2="479.5" class="net_9"/>
  <line x1="99" x2="99" y1="479.5" y2="641.5" class="net_9"/>
  <line x1="99" x2="1173" y1="641.5" y2="641.5" class="net_9"/>
  <line x1="1173" x2="1173" y1="641.5" y2="535.5" class="net_9"/>
  <line x1="1173" x2="1195" y1="535.5" y2="535.5" class="net_9"/>
  <line x1="82" x2="159" y1="384.5" y2="384.5" class="net_4"/>
  <line x1="159" x2="159" y1="384.5" y2="540.5" class="net_4"/>
  <circle cx="159" cy="384.5" r="2" style="fill:#000" class="net_4"/>
  <line x1="159" x2="633.6666666666666" y1="540.5" y2="540.5" class="net_4"/>
  <line x1="82" x2="323.66666666666663" y1="384.5" y2="384.5" class="net_4"/>
  <line x1="82" x2="129" y1="499.5" y2="499.5" class="net_8"/>
  <line x1="129" x2="129" y1="499.5" y2="555.5" class="net_8"/>
  <circle cx="129" cy="499.5" r="2" style="fill:#000" class="net_8"/>
  <line x1="129" x2="633.6666666666666" y1="555.5" y2="555.5" class="net_8"/>
  <line x1="82" x2="212" y1="499.5" y2="499.5" class="net_8"/>
  <line x1="212" x2="212" y1="499.5" y2="399.5" class="net_8"/>
  <line x1="212" x2="323.66666666666663" y1="399.5" y2="399.5" class="net_8"/>
  <line x1="663.6666666666666" x2="960.6666666666666" y1="548" y2="548" class="net_17"/>
  <line x1="663.6666666666666" x2="856" y1="548" y2="548" class="net_17"/>
  <line x1="856" x2="856" y1="548" y2="334.5" class="net_17"/>
  <circle cx="856" cy="548" r="2" style="fill:#000" class="net_17"/>
  <line x1="856" x2="883" y1="334.5" y2="334.5" class="net_17"/>
  <line x1="670.6666666666666" x2="866" y1="608" y2="608" class="net_16"/>
  <line x1="866" x2="866" y1="608" y2="563" class="net_16"/>
  <circle cx="866" cy="563" r="2" style="fill:#000" class="net_16"/>
  <line x1="866" x2="960.6666666666666" y1="563" y2="563" class="net_16"/>
  <line x1="670.6666666666666" x2="866" y1="608" y2="608" class="net_16"/>
  <line x1="866" x2="866" y1="608" y2="427" class="net_16"/>
  <circle cx="866" cy="427" r="2" style="fill:#000" class="net_16"/>
  <line x1="866" x2="963.6666666666666" y1="427" y2="427" class="net_16"/>
  <line x1="670.6666666666666" x2="866" y1="608" y2="608" class="net_16"/>
  <line x1="866" x2="866" y1="608" y2="357" class="net_16"/>
  <line x1="866" x2="1163" y1="357" y2="357" class="net_16"/>
  <line x1="1163" x2="1163" y1="357" y2="309.5" class="net_16"/>
  <line x1="1163" x2="1274.6666666666667" y1="309.5" y2="309.5" class="net_16"/>
  <line x1="996.6666666666666" x2="1195" y1="555.5" y2="555.5" class="net_18"/>
  <line x1="358.66666666666663" x2="534" y1="392" y2="392" class="net_20"/>
  <line x1="534" x2="534" y1="392" y2="412" class="net_20"/>
  <circle cx="534" cy="392" r="2" style="fill:#000" class="net_20"/>
  <line x1="534" x2="963.6666666666666" y1="412" y2="412" class="net_20"/>
  <line x1="358.66666666666663" x2="672.5" y1="392" y2="392" class="net_20"/>
  <line x1="82" x2="139" y1="404.5" y2="404.5" class="net_3"/>
  <line x1="139" x2="139" y1="404.5" y2="510.5" class="net_3"/>
  <circle cx="139" cy="404.5" r="2" style="fill:#000" class="net_3"/>
  <line x1="139" x2="321.66666666666663" y1="510.5" y2="510.5" class="net_3"/>
  <line x1="82" x2="139" y1="404.5" y2="404.5" class="net_3"/>
  <line x1="139" x2="139" y1="404.5" y2="216" class="net_3"/>
  <line x1="139" x2="323.66666666666663" y1="216" y2="216" class="net_3"/>
  <line x1="82" x2="149" y1="519.5" y2="519.5" class="net_7"/>
  <line x1="149" x2="149" y1="519.5" y2="525.5" class="net_7"/>
  <circle cx="149" cy="519.5" r="2" style="fill:#000" class="net_7"/>
  <line x1="149" x2="321.66666666666663" y1="525.5" y2="525.5" class="net_7"/>
  <line x1="82" x2="149" y1="519.5" y2="519.5" class="net_7"/>
  <line x1="149" x2="149" y1="519.5" y2="262" class="net_7"/>
  <line x1="149" x2="222" y1="262" y2="262" class="net_7"/>
  <line x1="222" x2="222" y1="262" y2="231" class="net_7"/>
  <line x1="222" x2="323.66666666666663" y1="231" y2="231" class="net_7"/>
  <line x1="82" x2="99" y1="424.5" y2="424.5" class="net_2"/>
  <line x1="99" x2="99" y1="424.5" y2="232" class="net_2"/>
  <circle cx="99" cy="232" r="2" style="fill:#000" class="net_2"/>
  <line x1="99" x2="170" y1="232" y2="232" class="net_2"/>
  <line x1="82" x2="99" y1="424.5" y2="424.5" class="net_2"/>
  <line x1="99" x2="99" y1="424.5" y2="17" class="net_2"/>
  <line x1="99" x2="172" y1="17" y2="17" class="net_2"/>
  <line x1="82" x2="109" y1="539.5" y2="539.5" class="net_6"/>
  <line x1="109" x2="109" y1="539.5" y2="247" class="net_6"/>
  <circle cx="109" cy="247" r="2" style="fill:#000" class="net_6"/>
  <line x1="109" x2="170" y1="247" y2="247" class="net_6"/>
  <line x1="82" x2="109" y1="539.5" y2="539.5" class="net_6"/>
  <line x1="109" x2="109" y1="539.5" y2="32" class="net_6"/>
  <line x1="109" x2="172" y1="32" y2="32" class="net_6"/>
  <line x1="202" x2="222" y1="24.5" y2="24.5" class="net_25"/>
  <line x1="222" x2="222" y1="24.5" y2="123.5" class="net_25"/>
  <circle cx="222" cy="24.5" r="2" style="fill:#000" class="net_25"/>
  <line x1="222" x2="244" y1="123.5" y2="123.5" class="net_25"/>
  <line x1="202" x2="1274.6666666666667" y1="24.5" y2="24.5" class="net_25"/>
  <line x1="200" x2="212" y1="92" y2="92" class="net_10"/>
  <line x1="212" x2="212" y1="92" y2="143.5" class="net_10"/>
  <circle cx="212" cy="92" r="2" style="fill:#000" class="net_10"/>
  <line x1="212" x2="244" y1="143.5" y2="143.5" class="net_10"/>
  <line x1="200" x2="1163" y1="92" y2="92" class="net_10"/>
  <line x1="1163" x2="1163" y1="92" y2="39.5" class="net_10"/>
  <line x1="1163" x2="1274.6666666666667" y1="39.5" y2="39.5" class="net_10"/>
  <line x1="200" x2="212" y1="239.5" y2="239.5" class="net_24"/>
  <line x1="212" x2="212" y1="239.5" y2="163.5" class="net_24"/>
  <line x1="212" x2="244" y1="163.5" y2="163.5" class="net_24"/>
  <line x1="275" x2="534" y1="123.5" y2="123.5" class="net_26"/>
  <line x1="534" x2="534" y1="123.5" y2="294.5" class="net_26"/>
  <circle cx="534" cy="123.5" r="2" style="fill:#000" class="net_26"/>
  <line x1="534" x2="556" y1="294.5" y2="294.5" class="net_26"/>
  <line x1="275" x2="1274.6666666666667" y1="123.5" y2="123.5" class="net_26"/>
  <line x1="358.66666666666663" x2="524" y1="223.5" y2="223.5" class="net_23"/>
  <line x1="524" x2="524" y1="223.5" y2="314.5" class="net_23"/>
  <circle cx="524" cy="223.5" r="2" style="fill:#000" class="net_23"/>
  <line x1="524" x2="556" y1="314.5" y2="314.5" class="net_23"/>
  <line x1="358.66666666666663" x2="1163" y1="223.5" y2="223.5" class="net_23"/>
  <line x1="1163" x2="1163" y1="223.5" y2="138.5" class="net_23"/>
  <line x1="1163" x2="1274.6666666666667" y1="138.5" y2="138.5" class="net_23"/>
  <line x1="357.66666666666663" x2="524" y1="518" y2="518" class="net_22"/>
  <line x1="524" x2="524" y1="518" y2="334.5" class="net_22"/>
  <line x1="524" x2="556" y1="334.5" y2="334.5" class="net_22"/>
  <line x1="990.6666666666666" x2="1173" y1="419.5" y2="419.5" class="net_21"/>
  <line x1="1173" x2="1173" y1="419.5" y2="354.5" class="net_21"/>
  <line x1="1173" x2="1274.6666666666667" y1="354.5" y2="354.5" class="net_21"/>
  <line x1="587" x2="836" y1="294.5" y2="294.5" class="net_27"/>
  <line x1="836" x2="836" y1="294.5" y2="369.5" class="net_27"/>
  <circle cx="836" cy="294.5" r="2" style="fill:#000" class="net_27"/>
  <line x1="836" x2="1274.6666666666667" y1="369.5" y2="369.5" class="net_27"/>
  <line x1="587" x2="836" y1="294.5" y2="294.5" class="net_27"/>
  <line x1="836" x2="836" y1="294.5" y2="234.5" class="net_27"/>
  <line x1="836" x2="1274.6666666666667" y1="234.5" y2="234.5" class="net_27"/>
  <line x1="587" x2="883" y1="294.5" y2="294.5" class="net_27"/>
  <line x1="1307.6666666666667" x2="1500" y1="362" y2="362" class="net_28"/>
  <line x1="1226" x2="1475" y1="515.5" y2="515.5" class="net_19"/>
  <line x1="1475" x2="1475" y1="515.5" y2="377" class="net_19"/>
  <line x1="1475" x2="1500" y1="377" y2="377" class="net_19"/>
  <line x1="697.5" x2="846" y1="392" y2="392" class="net_29"/>
  <line x1="846" x2="846" y1="392" y2="249.5" class="net_29"/>
  <line x1="846" x2="1274.6666666666667" y1="249.5" y2="249.5" class="net_29"/>
  <line x1="697.5" x2="846" y1="392" y2="392" class="net_29"/>
  <line x1="846" x2="846" y1="392" y2="314.5" class="net_29"/>
  <circle cx="846" cy="314.5" r="2" style="fill:#000" class="net_29"/>
  <line x1="846" x2="883" y1="314.5" y2="314.5" class="net_29"/>
  <line x1="914" x2="1274.6666666666667" y1="294.5" y2="294.5" class="net_30"/>
  <line x1="1517.5" x2="1571" y1="42" y2="42" class="net_11,12,13,14"/>
  <line x1="1536" x2="1571" y1="369.5" y2="369.5" class="net_15"/>
  <line x1="1304.6666666666667" x2="1511.5" y1="32" y2="32" class="net_11"/>
  <line x1="1304.6666666666667" x2="1475" y1="131" y2="131" class="net_12"/>
  <line x1="1475" x2="1475" y1="131" y2="52" class="net_12"/>
  <line x1="1475" x2="1511.5" y1="52" y2="52" class="net_12"/>
  <line x1="1304.6666666666667" x2="1485" y1="242" y2="242" class="net_13"/>
  <line x1="1485" x2="1485" y1="242" y2="72" class="net_13"/>
  <line x1="1485" x2="1511.5" y1="72" y2="72" class="net_13"/>
  <line x1="1304.6666666666667" x2="1512" y1="302" y2="302" class="net_14"/>
  <line x1="1512" x2="1512" y1="302" y2="92.5" class="net_14"/>
  <line x1="40" x2="77" y1="374.5" y2="374.5" class="net_2,3,4,5"/>
  <line x1="40" x2="77" y1="489.5" y2="489.5" class="net_6,7,8,9"/>
</svg>
